<svg width="180" height="34" viewBox="0 0 180 34" fill="none" xmlns="http://www.w3.org/2000/svg">
<path d="M37.5043 9.98325C35.9893 9.98325 34.7413 11.1873 34.7413 12.7063V24.2272H37.5043V12.7073H44.0933V9.98225H37.5043V9.98325ZM60.5663 17.0793V12.6803C60.5663 11.1883 59.3443 9.95725 57.8033 9.95725H48.8763C47.3613 9.95725 46.1123 11.1613 46.1123 12.6803V21.4783C46.1123 22.9703 47.3353 24.2013 48.8763 24.2013H57.8033C59.3183 24.2013 60.5663 22.9963 60.5663 21.4783V17.0782V17.0793ZM57.8033 17.0793V21.4783H48.8763V12.6803H57.8033V17.0793ZM66.0933 9.98325C64.5783 9.98325 63.3293 11.1873 63.3293 12.7063V21.5042C63.3293 22.9962 64.5523 24.2272 66.0933 24.2272L75.8173 24.0972V21.5042H66.0933V12.7063H75.8173V10.1143L66.0933 9.98325V9.98325ZM91.6553 9.98325H87.9104L82.4363 15.7173H81.3473V9.98325H78.5843V24.2013H81.3473V18.4412H82.9403L88.6263 24.2013H92.4263L85.1194 16.7652L91.6553 9.98325ZM95.7703 21.4783V18.4403L107.462 18.3102V12.6803C107.462 11.1883 106.239 9.95725 104.698 9.95725H95.7714C94.2564 9.95725 93.0084 11.1613 93.0084 12.6803V21.4783C93.0084 22.9703 94.2304 24.2013 95.7714 24.2013L107.462 24.0702V21.4783H95.7714H95.7703ZM95.7703 12.6803H104.698V15.7173H95.7714V12.6803H95.7703ZM114.396 5.82025H113.333L111.633 7.88925V9.95725H109.534V12.6803L111.633 12.6543V21.4783C111.633 22.9713 112.855 24.2013 114.396 24.2013L118.86 24.0712V21.4783H114.396V12.6283L119.258 12.5493V9.95725H114.396V5.82025ZM133.819 18.4403C133.819 16.9483 132.596 15.7173 131.055 15.7173H124.094V12.6803H133.819V10.0883L124.094 9.95725C122.58 9.95725 121.331 11.1613 121.331 12.6803V15.7173C121.331 17.2103 122.553 18.4403 124.094 18.4403H131.055V21.4783H121.331V24.0702L131.055 24.2003C132.57 24.2003 133.819 22.9963 133.819 21.4783V18.4403V18.4403ZM148.246 9.98325H139.318C137.804 9.98325 136.555 11.1873 136.555 12.7063V21.5042C136.555 22.9962 137.777 24.2272 139.318 24.2272L151.009 24.0972V21.5042H139.318V18.4672L151.009 18.3363V12.7063C151.009 11.1883 149.787 9.98325 148.246 9.98325ZM148.246 15.7173H139.318V12.6803H148.246V15.7173V15.7173ZM165.463 9.98325L153.772 10.1133V12.7063H165.463V15.7432L153.772 15.8743V21.5042C153.772 22.9962 154.994 24.2272 156.535 24.2272H165.463C166.977 24.2272 168.226 23.0232 168.226 21.5042V12.7063C168.217 11.9801 167.921 11.2869 167.404 10.7772C166.887 10.2674 166.19 9.98214 165.463 9.98325V9.98325ZM165.463 21.4783H156.535V18.4403H165.463V21.4783ZM175.138 12.6283L180 12.5493V9.95725H175.138V5.79425H174.075L172.375 7.86225V9.93125H170.276V12.6543L172.375 12.6283V21.4522C172.375 22.9442 173.597 24.1752 175.138 24.1752L179.601 24.0443V21.4522H175.138V12.6283V12.6283Z" fill="#C5C5CA"/>
<path d="M27.4343 0.662248L22.9443 0.00724788C22.8886 -0.00366044 22.8312 -0.00224098 22.7761 0.0114066C22.721 0.0250542 22.6695 0.0505991 22.6253 0.0862479L20.7123 2.54625C20.6507 2.62209 20.6088 2.71199 20.5903 2.80794C20.5718 2.9039 20.5773 3.00294 20.6063 3.09625C20.6593 3.28025 20.5003 3.43725 20.3143 3.41125L18.7463 3.07125C18.6248 3.04335 18.4978 3.05063 18.3802 3.09225C18.2626 3.13386 18.1593 3.20809 18.0823 3.30625L11.8653 11.1612C11.7583 11.3182 11.5453 11.3712 11.3603 11.2922L8.99535 10.2452C8.89446 10.1953 8.78186 10.1737 8.66963 10.1828C8.55741 10.192 8.4498 10.2316 8.35835 10.2972L7.16235 11.1092C7.06585 11.1752 6.95378 11.2146 6.83728 11.2238C6.72078 11.2329 6.60393 11.2113 6.49835 11.1612L5.91335 10.8732C5.82571 10.8311 5.7299 10.8086 5.63264 10.8074C5.53539 10.8062 5.43906 10.8264 5.35041 10.8664C5.26177 10.9064 5.18298 10.9654 5.11956 11.0391C5.05615 11.1129 5.00965 11.1996 4.98335 11.2932L4.55835 13.1512C4.45235 13.5962 4.63835 14.0412 5.03635 14.2772L5.94035 14.8272L8.83635 16.5812L10.2444 17.4452C10.6434 17.6812 11.1474 17.6292 11.4934 17.3412L13.8574 15.2982C14.0434 15.1412 14.3364 15.0882 14.5484 15.2202L15.2663 15.5862C15.3813 15.6478 15.5129 15.6709 15.642 15.6522C15.771 15.6335 15.8906 15.5739 15.9833 15.4822L17.1793 14.3822C17.2704 14.2973 17.385 14.2418 17.5081 14.223C17.6312 14.2043 17.7571 14.2232 17.8693 14.2772L19.6493 15.0892C19.9153 15.2192 20.2343 15.1412 20.4203 14.9062L21.2443 13.8582L27.4883 5.97725C27.5565 5.89201 27.6017 5.79066 27.6193 5.68294C27.637 5.57522 27.6267 5.46476 27.5893 5.3622C27.5519 5.25963 27.4888 5.16841 27.406 5.09731C27.3231 5.02622 27.2234 4.97764 27.1163 4.95625L25.7343 4.64225C25.4423 4.58925 25.3093 4.22225 25.5213 4.01325L27.6743 1.36925C27.8863 1.05425 27.7543 0.714248 27.4343 0.662248V0.662248ZM6.84335 16.5292C6.71035 16.4512 6.57735 16.5812 6.63035 16.7122L7.29435 18.4402C7.34835 18.5712 7.34835 18.7022 7.32135 18.8332L6.73635 21.0852C6.71035 21.2422 6.76335 21.3992 6.86935 21.4782L8.54335 22.7612C8.70335 22.8662 8.91535 22.8662 9.04835 22.7352L10.8024 21.2152C10.9084 21.1372 11.0414 21.0852 11.1474 21.0592L13.1404 20.8492C13.2734 20.8232 13.3263 20.6392 13.1933 20.5612L6.84335 16.5292V16.5292ZM6.25835 22.3422C6.20124 22.3019 6.13514 22.276 6.06579 22.267C5.99644 22.2579 5.92592 22.2659 5.86035 22.2902L4.45235 22.9702C4.37235 22.9962 4.31935 23.0752 4.26635 23.1542L1.26335 30.4592V30.5112C1.29035 30.5372 1.31635 30.5642 1.37035 30.5642L2.06035 30.3022H2.14035C2.16735 30.3282 2.19335 30.3802 2.16735 30.4072L0.0143499 33.8892C-0.0386501 33.9672 0.0683499 34.0462 0.12135 33.9672L7.90635 26.2692C7.97595 26.1976 8.0223 26.1067 8.03935 26.0082L8.19835 24.0182C8.1989 23.9594 8.18738 23.9011 8.16451 23.847C8.14163 23.7928 8.10788 23.7439 8.06535 23.7032L6.25835 22.3422V22.3422Z" fill="#7550CA"/>
</svg>
